<svg id="visual" viewBox="0 0 960 540" width="960" height="540" xmlns="http://www.w3.org/2000/svg" xmlns:xlink="http://www.w3.org/1999/xlink" version="1.1"><path d="M0 353L137 317L274 372L411 399L549 395L686 330L823 363L960 337L960 541L823 541L686 541L549 541L411 541L274 541L137 541L0 541Z" fill="#df0af5"></path><path d="M0 371L137 378L274 360L411 365L549 358L686 359L823 427L960 376L960 541L823 541L686 541L549 541L411 541L274 541L137 541L0 541Z" fill="#b60cda"></path><path d="M0 399L137 434L274 410L411 422L549 423L686 419L823 444L960 414L960 541L823 541L686 541L549 541L411 541L274 541L137 541L0 541Z" fill="#9009bf"></path><path d="M0 441L137 449L274 447L411 456L549 486L686 483L823 467L960 473L960 541L823 541L686 541L549 541L411 541L274 541L137 541L0 541Z" fill="#6c04a3"></path><path d="M0 488L137 508L274 516L411 477L549 509L686 516L823 474L960 509L960 541L823 541L686 541L549 541L411 541L274 541L137 541L0 541Z" fill="#4a0087"></path></svg>